<svg width="1024" height="1024" xmlns="http://www.w3.org/2000/svg"><defs><linearGradient x1="100%" y1="50%" x2="0%" y2="50%" id="a"><stop stop-color="#E52D27" offset="0%"/><stop stop-color="#BF171D" offset="100%"/></linearGradient></defs><g fill="none" fill-rule="evenodd"><path d="M492 138v181.718c-105.727 0-191.795 85.838-191.795 191.282 0 92.054 65.546 169.094 152.477 187.266A193.712 193.712 0 0 0 492 702.282V884c-15.631 0-31.023-.956-46.175-2.869C261.32 858.417 118 701.087 118 511c0-205.676 167.773-373 374-373z" fill="#FFF"/><path d="M976 260c0 15.631-.956 31.07-2.87 46.223C950.368 490.729 793.087 634 603 634c-205.676 0-373-167.773-373-374h181.718c0 105.775 85.79 191.795 191.282 191.795 92.007 0 169.045-65.45 187.217-152.43 2.678-12.706 4.065-25.891 4.065-39.365H976z" fill="url(#a)" transform="rotate(-90 694 420)"/><path d="M452.8 698a192.315 192.315 0 0 0 39.2 4.022V884c-15.585 0-30.93-.958-46.037-2.873L358 793.011 452.8 698z" fill="#E8E0E0"/><path fill="#C51B1F" d="M558 960V630L392 794.987z"/><path d="M534 140c15.58 0 30.967.957 46.069 2.873L668 231.013 573.235 326c-12.664-2.681-25.806-4.07-39.235-4.07V140z" fill="#C91E01"/><path fill="#FFF" d="M468 64v330l166-164.987z"/></g></svg>