<svg width="44" height="50" xmlns="http://www.w3.org/2000/svg"><defs><linearGradient x1="100%" y1="50%" x2="0%" y2="50%" id="a"><stop stop-color="#E52D27" offset="0%"/><stop stop-color="#BF171D" offset="100%"/></linearGradient></defs><g fill="none" fill-rule="evenodd"><path d="M45.8008139,20.8 L35.6674805,20.8 C35.6674805,14.9200032 30.8808269,10.1333333 25.0008139,10.1333333 C19.8674805,10.1333333 15.571452,13.7786621 14.5581056,18.6133301 C14.4114259,19.3200032 14.3341472,20.0506675 14.3341472,20.8 L4.20081387,20.8 C4.20081387,19.930664 4.25413413,19.0746581 4.36077493,18.2319987 C5.62744133,7.97067067 14.4008139,0 25.0008139,0 C36.4701499,0 45.8008139,9.330664 45.8008139,20.8 Z" fill="#FFF" transform="rotate(-90 25 25)"/><path d="M45.8008139,23.2 C45.8008139,24.069336 45.7474936,24.9279947 45.6407877,25.7706707 C44.3714517,36.0319987 35.6008139,44 25.0008139,44 C13.5314779,44 4.20081387,34.669336 4.20081387,23.2 L14.3341472,23.2 C14.3341472,29.0826661 19.1181315,33.8666667 25.0008139,33.8666667 C30.1314779,33.8666667 34.4274416,30.2266603 35.4407877,25.3893229 C35.5901368,24.6826661 35.6674805,23.9493328 35.6674805,23.2 L45.8008139,23.2 Z" fill="url(#a)" transform="rotate(-90 25 25)"/><path d="M14.5581056,18.6133301 C14.4114259,19.3200032 14.3341472,20.0506675 14.3341472,20.8 L4.20081387,20.8 C4.20081387,19.930664 4.25413413,19.0746581 4.36077493,18.2319987 L9.26748053,13.3253256 L14.5581056,18.6133301 Z" fill="#E8E0E0" transform="rotate(-90 25 25)"/><path fill="#C51B1F" d="M0.0331056 24.439144L18.5002277 24.439144 9.26741547 15.2093749z" transform="rotate(-90 25 25)"/><path d="M45.8008139,23.2 C45.8008139,24.069336 45.7474936,24.9279947 45.6407877,25.7706707 L40.7314779,30.6773275 L35.4407877,25.3893229 C35.5901368,24.6826661 35.6674805,23.9493328 35.6674805,23.2 L45.8008139,23.2 Z" fill="#C91E01" transform="rotate(-90 25 25)"/><path fill="#FFF" d="M49.9668944 19.5632163L31.4997723 19.5632163 40.7325845 28.7929851z" transform="rotate(-90 25 25)"/></g></svg>